<?xml version="1.0" encoding="UTF-8" standalone="no"?>
<!DOCTYPE svg PUBLIC "-//W3C//DTD SVG 1.1//EN" "http://www.w3.org/Graphics/SVG/1.1/DTD/svg11.dtd">
<svg width="100%" height="100%" viewBox="0 0 128 128" version="1.1" xmlns="http://www.w3.org/2000/svg" xmlns:xlink="http://www.w3.org/1999/xlink" xml:space="preserve" xmlns:serif="http://www.serif.com/" style="fill-rule:evenodd;clip-rule:evenodd;stroke-linejoin:round;stroke-miterlimit:2;">
    <rect id="Artboard1" x="0" y="0" width="128" height="128" style="fill:none;"/>
    <g id="Artboard11" serif:id="Artboard1">
        <g transform="matrix(1.15217,0,0,1.15217,-2.82609,0.716835)">
            <path d="M21,28L12,40C17.57,37.549 23.82,35.891 30.954,35.265C33.9,35 36.868,35.254 39.726,36.016C40.064,36.084 40.411,36.176 40.768,36.271C42.946,36.852 44.664,38.525 45.304,40.686C45.944,42.847 45.413,45.186 43.902,46.859C42.38,48.543 40.713,50.389 39.006,52.279C28.444,63.973 20.343,77.674 15.189,92.566C14.467,94.65 14,96 14,96L55,88C55,88 55.305,84.954 55.676,81.24C56.551,72.491 59.062,63.985 63.078,56.164C64.621,53.159 66.303,49.885 67.927,46.721C69.864,42.949 69.95,38.495 68.16,34.651C66.37,30.808 62.905,28.007 58.772,27.062C58.662,27.037 58.552,27.012 58.443,26.987C46.976,24.366 35.053,24.487 23.642,27.34C22.038,27.74 21,28 21,28Z" style="fill:rgb(255,136,43);"/>
        </g>
        <g transform="matrix(1.15217,0,0,1.15217,-2.82609,0.716835)">
            <path d="M53.167,21.449C51.844,21.367 50.514,21.356 49.183,21.42C43.437,21.693 37,22 37,22L42,16C42,16 48.181,15.227 54.27,14.466C62.048,13.494 69.926,13.673 77.651,14.997C77.651,14.997 77.651,14.997 77.651,14.997C90.994,17.285 100.549,29.142 99.948,42.666C99.93,43.068 99.913,43.469 99.895,43.869C99.301,57.233 100.439,70.619 103.281,83.691C103.715,85.688 104,87 104,87L66,96C66,96 66.067,94.322 66.167,91.835C66.718,78.038 69.529,64.425 74.485,51.538C74.889,50.488 75.293,49.439 75.692,48.401C79.238,39.182 75.005,28.794 66.026,24.678C66.025,24.678 66.025,24.678 66.024,24.678C65.584,24.476 65.14,24.283 64.694,24.1C65.654,22.437 65.849,20.699 65.044,19.384C63.604,17.03 59.502,16.913 55.89,19.123C54.802,19.789 53.882,20.59 53.167,21.449Z" style="fill:rgb(255,136,43);"/>
        </g>
    </g>
</svg>
